<?xml version="1.0" standalone="no"?>
<!DOCTYPE svg PUBLIC "-//W3C//DTD SVG 20010904//EN"
 "http://www.w3.org/TR/2001/REC-SVG-20010904/DTD/svg10.dtd">
<svg version="1.0" xmlns="http://www.w3.org/2000/svg"
 width="776.000000pt" height="260.000000pt" viewBox="0 0 776.000000 260.000000"
 preserveAspectRatio="xMidYMid meet">

<g transform="translate(0.000000,260.000000) scale(0.100000,-0.100000)"
fill="#000000" stroke="none">
<path d="M3594 2181 c-113 -52 -139 -210 -47 -293 27 -25 87 -48 125 -48 76 0
158 71 172 148 19 104 -72 212 -176 212 -18 0 -52 -9 -74 -19z"/>
<path d="M775 2029 c-112 -42 -165 -167 -116 -274 63 -137 248 -154 345 -32
26 32 31 48 34 105 3 81 -20 130 -84 175 -46 32 -129 44 -179 26z"/>
<path d="M3425 1746 c-79 -18 -126 -38 -180 -77 -88 -63 -152 -194 -128 -260
10 -26 9 -35 -13 -66 l-24 -36 2 -325 c3 -297 5 -326 21 -336 12 -8 22 -8 35
0 15 10 17 41 22 335 3 178 7 325 8 325 33 23 72 4 72 -35 0 -39 23 -57 55
-43 19 9 25 19 25 42 0 38 -24 86 -49 100 -19 10 -19 11 5 72 13 33 31 69 40
79 21 24 112 69 137 69 18 0 19 -5 14 -59 -4 -32 -39 -186 -78 -342 -50 -199
-68 -288 -62 -299 7 -10 40 -19 94 -27 126 -17 416 -26 480 -15 194 36 315
154 280 273 -14 48 -66 108 -115 134 -42 23 -44 29 -12 50 37 25 76 90 88 149
21 108 -42 225 -150 278 -44 22 -59 23 -277 25 -164 2 -247 -2 -290 -11z m495
-141 c75 -38 100 -107 61 -171 -47 -77 -201 -103 -298 -50 -90 49 -108 118
-47 185 65 73 182 87 284 36z m-23 -390 c122 -56 122 -174 0 -230 -179 -84
-391 64 -274 191 61 67 179 84 274 39z"/>
<path d="M5260 1500 c0 -77 -4 -140 -9 -140 -5 0 -14 7 -22 16 -44 53 -157 62
-244 19 -94 -46 -134 -118 -135 -246 0 -65 4 -84 31 -138 49 -98 126 -141 254
-141 120 0 203 49 252 148 l28 57 3 283 4 282 -81 0 -81 0 0 -140z m-53 -241
c61 -52 56 -188 -9 -233 -28 -20 -90 -21 -127 -1 -75 38 -81 190 -9 237 43 28
108 27 145 -3z"/>
<path d="M5920 1499 l0 -140 -33 26 c-60 45 -170 50 -244 11 -37 -19 -86 -72
-108 -116 -45 -89 -25 -242 42 -320 59 -68 102 -85 218 -85 117 0 159 17 219
87 60 70 66 106 66 410 l0 268 -80 0 -80 0 0 -141z m-43 -251 c54 -50 50 -160
-7 -210 -24 -22 -40 -28 -76 -28 -39 0 -51 5 -78 33 -38 37 -51 90 -37 145 15
53 30 71 75 86 46 16 88 7 123 -26z"/>
<path d="M635 1591 c-76 -35 -223 -213 -232 -281 -5 -35 -2 -43 30 -75 45 -45
99 -49 146 -9 l31 26 0 -56 c0 -37 -17 -118 -50 -236 -27 -99 -50 -193 -50
-209 0 -70 56 -120 122 -107 62 11 76 37 139 267 52 192 70 241 83 228 2 -2
39 -98 82 -214 42 -116 83 -220 91 -231 20 -31 66 -48 107 -40 42 8 86 56 86
95 0 15 -34 118 -75 229 -42 112 -75 218 -75 238 l0 36 31 -26 c47 -40 101
-36 146 9 32 32 35 40 30 75 -9 72 -152 245 -232 281 -59 27 -351 27 -410 0z"/>
<path d="M2030 1435 l0 -65 -45 0 -45 0 0 -65 0 -65 45 0 45 0 0 -142 c0 -158
10 -193 63 -232 24 -18 46 -22 138 -24 l109 -4 0 66 0 66 -56 0 c-93 0 -94 1
-94 145 l0 125 75 0 75 0 0 65 0 65 -75 0 -75 0 0 65 0 65 -80 0 -80 0 0 -65z"/>
<path d="M4220 1238 c1 -186 8 -222 54 -282 44 -58 105 -81 217 -81 89 0 99 2
145 30 54 34 88 78 104 134 5 20 10 111 10 204 l0 167 -80 0 -80 0 0 -160 c0
-207 -15 -240 -105 -240 -90 0 -105 33 -105 240 l0 160 -80 0 -80 0 0 -172z"/>
<path d="M6200 1228 c0 -155 3 -189 19 -223 21 -48 76 -98 125 -116 l36 -13 0
-103 0 -103 80 0 80 0 0 104 0 104 27 7 c46 11 101 58 130 110 27 49 28 55 31
233 l4 182 -81 0 -81 0 0 -150 c0 -163 -9 -204 -51 -234 -38 -27 -96 -21 -130
13 l-29 29 0 171 0 171 -80 0 -80 0 0 -182z"/>
<path d="M6909 1387 c-55 -37 -79 -81 -79 -146 0 -111 51 -152 199 -161 98 -5
122 -17 108 -54 -5 -14 -26 -16 -147 -16 l-140 0 0 -65 0 -65 155 0 c176 0
203 7 252 63 50 57 57 150 15 207 -35 46 -76 62 -180 69 -93 6 -97 7 -100 30
-2 13 2 28 10 32 7 5 66 9 131 9 l117 0 0 60 0 60 -154 0 c-143 0 -155 -2
-187 -23z"/>
<path d="M2629 1380 c-92 -16 -181 -85 -216 -169 -25 -57 -21 -166 6 -224 51
-105 158 -163 285 -155 147 10 251 107 263 247 17 187 -148 333 -338 301z
m100 -146 c123 -49 91 -264 -38 -264 -91 0 -136 53 -129 151 5 66 31 103 82
118 43 13 41 13 85 -5z"/>
<path d="M1340 1198 c1 -186 8 -222 54 -282 44 -58 105 -81 217 -81 89 0 99 2
145 30 30 19 60 49 79 79 l30 49 3 189 4 188 -81 0 -81 0 0 -160 c0 -207 -15
-240 -105 -240 -90 0 -105 33 -105 240 l0 160 -80 0 -80 0 0 -172z"/>
<path d="M3460 718 c0 -86 16 -118 59 -118 15 0 35 8 43 18 14 17 54 149 47
156 -2 2 -37 7 -76 11 l-73 7 0 -74z"/>
<path d="M3798 783 c-27 -2 -48 -7 -48 -10 0 -20 34 -132 46 -150 18 -28 64
-31 87 -5 13 14 17 38 17 95 l0 77 -27 -2 c-16 -1 -49 -3 -75 -5z"/>
</g>
</svg>
